# xmcd CD database file
#
# Track frame offsets:
#	150
#	16517
#	39920
#	60552
#	79075
#	94952
#	116497
#	134527
#	149567
#	165475
#	178737
#	196080
#
# Disc length: 2849 seconds
#
# Revision: 0
# Processed by: cddbd v1.5.1PL0 Copyright (c) Steve Scherf et al.
# Submitted via: CDex 1.51
#
DISCID=980b1f0c
DTITLE=Lil' Ray Neal - Blues House
DYEAR=1996
DGENRE=Blues
TTITLE0=I've been mistreated
TTITLE1=The sky is crying
TTITLE2=Baby Please
TTITLE3=Standin' at your front door
TTITLE4=Nothing but the blues
TTITLE5=Drivin' Wheel
TTITLE6=Honey Hush
TTITLE7=How sweet it is
TTITLE8=Sweet Home Chicago
TTITLE9=Big Boss Man
TTITLE10=Ball Game
TTITLE11=Its me, my brother and the Blues
EXTD=YEAR: 1996
EXTT0=
EXTT1=
EXTT2=
EXTT3=
EXTT4=
EXTT5=
EXTT6=
EXTT7=
EXTT8=
EXTT9=
EXTT10=
EXTT11=
PLAYORDER=
